<svg width="32" height="32" viewBox="0 0 32 32"
  xmlns="http://www.w3.org/2000/svg">

  <defs>
    <linearGradient id="orange32" x1="0%" y1="0%" x2="100%" y2="100%">
      <stop offset="0%" stop-color="#E65100"/>
      <stop offset="100%" stop-color="#FF8F00"/>
    </linearGradient>
  </defs>

  <!-- Slightly larger scale to fill more -->
  <g transform="translate(16,20) scale(0.94)" fill="url(#orange32)">

    <!-- Head -->
    <circle cx="0" cy="-10" r="7" />

    <!-- Extended Body -->
    <path d="M -14 4 
             Q -14 -4 0 -4 
             T 14 4 
             L 14 14 
             L -14 14 
             Z" />

    <!-- Magnifier -->
    <g transform="translate(9,-6)">
      <path d="M 0 -6 A 6 6 0 1 0 0 6 A 6 6 0 1 0 0 -6
               M 0 -3 A 3 3 0 1 1 0 3 A 3 3 0 1 1 0 -3" />
      <rect x="4" y="4" width="7" height="3.5" rx="1.5" transform="rotate(45 4 4)" />
    </g>

  </g>

</svg>