<svg width="48" height="48" viewBox="0 0 48 48"
  xmlns="http://www.w3.org/2000/svg">

  <defs>
    <linearGradient id="orange48" x1="0%" y1="0%" x2="100%" y2="100%">
      <stop offset="0%" stop-color="#E65100"/>
      <stop offset="100%" stop-color="#FF8F00"/>
    </linearGradient>
  </defs>

  <!-- 128 version: translate(58,120) scale(3.4) -->
  <!-- scaled proportionally for 48px -->
  <g transform="translate(22, 40) scale(1.28)" fill="url(#orange48)">
    <circle cx="0" cy="-18" r="9" />
    <path d="M -16 2 Q -16 -8 0 -8 T 16 2 L 16 10 L -16 10 Z" />

    <g transform="translate(10, -12)">
      <path d="M 0 -7 A 7 7 0 1 0 0 7 A 7 7 0 1 0 0 -7 
               M 0 -3.5 A 3.5 3.5 0 1 1 0 3.5 A 3.5 3.5 0 1 1 0 -3.5" />
      <rect x="4.5" y="4.5" width="7.5" height="4" rx="2" transform="rotate(45 4.5 4.5)" />
    </g>
  </g>

</svg>