<svg width="32" height="32" viewBox="0 0 32 32"
  xmlns="http://www.w3.org">
  <defs>
    <linearGradient id="orange32" x1="0%" y1="0%" x2="100%" y2="100%">
      <stop offset="0%" style="stop-color:#E65100;stop-opacity:1" />
      <stop offset="100%" style="stop-color:#FF8F00;stop-opacity:1" />
    </linearGradient>
  </defs>
  <!-- x=13.5 (balanced), y=32 (absolute bottom), scale=0.85 (fills height) -->
  <g transform="translate(13.5, 32) scale(0.85)" fill="url(#orange32)">
    <circle cx="0" cy="-18" r="9" />
    <path d="M -16 2 Q -16 -8 0 -8 T 16 2 L 16 10 L -16 10 Z" />
    <g transform="translate(12, -12)">
      <path d="M 0 -8 A 8 8 0 1 0 0 8 A 8 8 0 1 0 0 -8 M 0 -4 A 4 4 0 1 1 0 4 A 4 4 0 1 1 0 -4" />
      <rect x="5.5" y="5.5" width="9" height="4.5" rx="2" transform="rotate(45 5.5 5.5)" />
    </g>
  </g>
</svg>
